# xmcd
#
# Track frame offsets:
#	150
#	3040
#	18291
#	37179
#	51700
#	74495
#	92585
#	117134
#	134010
#	156315
#
# Disc length: 2387 seconds
# Revision: 0
# Processed by: cddbd v1.5.2PL0 Copyright (c) Steve Scherf et al.
# Submitted via: dBpowerAMP V12.0
#
DISCID=8809510a
DTITLE=Suzie Glaze and The Hilonesome Band - Live at The Freight and Salvage
DYEAR=2010
DGENRE=Country
TTITLE0=Fair and Tender Ladies 
TTITLE1=One More Mile 
TTITLE2=Old Dirt Road 
TTITLE3=Maggie Bailey 
TTITLE4=Go Dig My Grave
TTITLE5=Morning Come and Mariah's Gone
TTITLE6=River Road 
TTITLE7=Albuquerque
TTITLE8=Blue Eyed Darlin'
TTITLE9=Pilgrim 
EXTD=
EXTT0=
EXTT1=
EXTT2=
EXTT3=
EXTT4=
EXTT5=
EXTT6=
EXTT7=
EXTT8=
EXTT9=
PLAYORDER=
